<svg xmlns="http://www.w3.org/2000/svg" viewBox="0 0 37.041665 37.041668" height="140" width="140"><path d="M17.8 37.018c-5.9-.23-11.3-3.234-14.628-8.137C.372 24.758-.63 19.65.39 14.718c.91-4.39 3.44-8.348 7.062-11.05C11.307.796 16.074-.454 20.882.148c4.925.618 9.435 3.237 12.44 7.225 2.03 2.695 3.254 5.782 3.625 9.145.072.656.095 1.13.095 1.998 0 1.283-.086 2.256-.3 3.4l-.056.3H8.03l.077.208c.22.59.537 1.245.882 1.817 1.608 2.663 4.265 4.544 7.295 5.16.833.17 1.186.203 2.24.203.84 0 1.008-.007 1.4-.06 1.736-.237 3.23-.785 4.662-1.714.53-.345.962-.68 1.533-1.196l.2-.18 4.476.006 4.475.007-.243.47c-1.274 2.46-3.024 4.57-5.162 6.22-2.847 2.195-6.148 3.485-9.748 3.81-.323.028-1.502.08-1.703.074-.068 0-.346-.01-.62-.022zm11.518-21.18c0-.078-.2-.744-.338-1.124-.818-2.25-2.38-4.21-4.39-5.514-1.244-.805-2.612-1.353-4.027-1.612-.772-.14-1.044-.162-2.05-.162-.825 0-.997.008-1.386.06-1.377.188-2.49.536-3.705 1.16-2.52 1.292-4.485 3.553-5.404 6.222-.14.408-.283.896-.283.97 0 .047.36.05 10.792.05 10.48 0 10.79-.002 10.79-.05z"/></svg>